# xmcd
#
# Track frame offsets: 
#        150
#        21192
#        37195
#        51541
#        58914
#        71856
#        99078
#        116976
#        133585
#        164845
#        179627
#        204094
#        216395
#        230536
#        252978
#
# Disc length: 3683 seconds
#
# Revision: 0
# Processed by: cddbd v1.5.2PL0 Copyright (c) Steve Scherf et al.
# Submitted via: ExactAudioCopy v0.99pb4
#
DISCID=f10e610f
DTITLE=Alan Soul and Alanselzer - "Live @ Big Mama"
DYEAR=1900
DGENRE=Blues
TTITLE0=Stop Leading Me On
TTITLE1=Spiderman Theme Song
TTITLE2=My Girl
TTITLE3=Maruzzella
TTITLE4=Tu Vuò Fa L'americano
TTITLE5=Still Crazy After All These Years
TTITLE6=Ain't That A Groove
TTITLE7=Soul Power
TTITLE8=It's A Man's Man's Man's World
TTITLE9=Shake Your Tailfeather
TTITLE10=Walking The Dog
TTITLE11=I Feel Good
TTITLE12=Knock On Wood
TTITLE13=In The Midnight Hour
TTITLE14=Georgia On My Mind
EXTD=
EXTT0=
EXTT1=
EXTT2=
EXTT3=
EXTT4=
EXTT5=
EXTT6=
EXTT7=
EXTT8=
EXTT9=
EXTT10=
EXTT11=
EXTT12=
EXTT13=
EXTT14=
PLAYORDER=
